<?xml version="1.0" encoding="UTF-8" standalone="no"?>
<!-- Created with Inkscape (http://www.inkscape.org/) -->

<svg
   width="210mm"
   height="297mm"
   viewBox="0 0 210 297"
   version="1.1"
   id="svg1"
   xml:space="preserve"
   inkscape:version="1.4.2 (ebf0e940d0, 2025-05-08)"
   sodipodi:docname="z13_stand.svg"
   xmlns:inkscape="http://www.inkscape.org/namespaces/inkscape"
   xmlns:sodipodi="http://sodipodi.sourceforge.net/DTD/sodipodi-0.dtd"
   xmlns="http://www.w3.org/2000/svg"
   xmlns:svg="http://www.w3.org/2000/svg"><sodipodi:namedview
     id="namedview1"
     pagecolor="#ffffff"
     bordercolor="#000000"
     borderopacity="0.25"
     inkscape:showpageshadow="2"
     inkscape:pageopacity="0.0"
     inkscape:pagecheckerboard="0"
     inkscape:deskcolor="#d1d1d1"
     inkscape:document-units="mm"
     showguides="true"
     inkscape:zoom="1.6774762"
     inkscape:cx="115.948"
     inkscape:cy="719.8314"
     inkscape:window-width="3784"
     inkscape:window-height="2091"
     inkscape:window-x="0"
     inkscape:window-y="0"
     inkscape:window-maximized="1"
     inkscape:current-layer="layer1" /><defs
     id="defs1"><inkscape:path-effect
       effect="fillet_chamfer"
       id="path-effect2085"
       is_visible="true"
       lpeversion="1"
       nodesatellites_param="C,0,1,1,0,0.52916667,0,1 @ F,0,0,1,0,0,0,1 @ F,0,0,1,0,0,0,1 @ F,0,0,1,0,0,0,1 @ C,0,1,1,0,0.52916667,0,1 @ C,0,1,1,0,0.52916667,0,1 @ C,0,1,1,0,0.52916667,0,1 @ C,0,1,1,0,0.52916667,0,1 @ C,0,1,1,0,0.52916667,0,1 @ C,0,1,1,0,0.52916667,0,1 @ C,0,1,1,0,0.52916667,0,1 @ C,0,1,1,0,0.52916667,0,1 @ C,0,1,1,0,0.52916667,0,1 | C,0,1,1,0,0.52916667,0,1 @ C,0,1,1,0,0.52916667,0,1 @ C,0,1,1,0,0.52916667,0,1 @ C,0,1,1,0,0.52916667,0,1 | C,0,1,1,0,0.52916667,0,1 @ C,0,1,1,0,0.52916667,0,1 @ C,0,1,1,0,0.52916667,0,1 @ C,0,1,1,0,0.52916667,0,1"
       unit="px"
       method="auto"
       mode="F"
       radius="2"
       chamfer_steps="1"
       flexible="false"
       use_knot_distance="true"
       apply_no_radius="true"
       apply_with_radius="true"
       only_selected="true"
       hide_knots="false" /><inkscape:path-effect
       effect="fillet_chamfer"
       id="path-effect1257"
       is_visible="true"
       lpeversion="1"
       nodesatellites_param="F,0,0,1,0,1,0,1 @ IC,0,1,1,0,0,0,1 @ IC,0,1,1,0,0,0,1 @ IC,0,1,1,0,0,0,1 @ C,0,0,1,0,1,0,1 @ C,0,0,1,0,1,0,1 @ F,0,0,1,0,2,0,1 @ F,0,0,1,0,2,0,1 @ F,0,0,1,0,1,0,1 @ F,0,0,1,0,1,0,1 @ F,0,0,1,0,0,0,1 @ F,0,0,1,0,0,0,1 @ F,0,0,1,0,1,0,1 | F,0,0,1,0,0,0,1 @ F,0,0,1,0,0,0,1 @ F,0,0,1,0,0,0,1 @ F,0,0,1,0,0,0,1 | F,0,0,1,0,0,0,1 @ F,0,0,1,0,0,0,1 @ F,0,0,1,0,0,0,1 @ F,0,0,1,0,0,0,1"
       unit="mm"
       method="auto"
       mode="F"
       radius="0"
       chamfer_steps="1"
       flexible="false"
       use_knot_distance="true"
       apply_no_radius="true"
       apply_with_radius="true"
       only_selected="true"
       hide_knots="false" /><inkscape:path-effect
       effect="fillet_chamfer"
       id="path-effect1249"
       is_visible="true"
       lpeversion="1"
       nodesatellites_param="C,0,0,1,0,0,0,1 @ C,0,0,1,0,0,0,1 @ C,0,0,1,0,0,0,1 @ C,0,0,1,0,0,0,1 @ C,0,0,1,0,0,0,1 @ C,0,0,1,0,0,0,1 @ C,0,0,1,0,0,0,1 @ C,0,0,1,0,0,0,1 @ C,0,0,1,0,0,0,1 @ C,0,0,1,0,0,0,1 @ C,0,0,1,0,0,0,1 @ C,0,0,1,0,0,0,1 @ C,0,0,1,0,0,0,1 | C,0,0,1,0,0,0,1 @ C,0,0,1,0,0,0,1 @ C,0,0,1,0,0,0,1 @ C,0,0,1,0,0,0,1 | C,0,0,1,0,0,0,1 @ C,0,0,1,0,0,0,1 @ C,0,0,1,0,0,0,1 @ C,0,0,1,0,0,0,1"
       unit="px"
       method="auto"
       mode="F"
       radius="0"
       chamfer_steps="1"
       flexible="false"
       use_knot_distance="true"
       apply_no_radius="true"
       apply_with_radius="true"
       only_selected="false"
       hide_knots="false" /><inkscape:path-effect
       effect="fillet_chamfer"
       id="path-effect2085-3"
       is_visible="true"
       lpeversion="1"
       nodesatellites_param="C,0,0,1,0,0.52916667,0,1 @ F,0,0,1,0,0,0,1 @ F,0,0,1,0,0,0,1 @ F,0,0,1,0,0,0,1 @ C,0,0,1,0,0.52916667,0,1 @ C,0,0,1,0,0.52916667,0,1 @ C,0,0,1,0,0.52916667,0,1 @ C,0,0,1,0,0.52916667,0,1 @ C,0,0,1,0,0.52916667,0,1 @ C,0,0,1,0,9.2860807,0,1 @ C,0,0,1,0,0.52916667,0,1 @ C,0,0,1,0,0.52916667,0,1 @ C,0,1,1,0,0.52916667,0,1 @ F,0,1,1,0,0.52916667,0,1 | C,0,0,1,0,0.52916667,0,1 @ C,0,0,1,0,0.52916667,0,1 @ C,0,0,1,0,0.52916667,0,1 @ C,0,0,1,0,0.52916667,0,1 | C,0,0,1,0,0.52916667,0,1 @ C,0,0,1,0,0.52916667,0,1 @ C,0,0,1,0,0.52916667,0,1 @ C,0,0,1,0,0.52916667,0,1"
       unit="px"
       method="auto"
       mode="F"
       radius="2"
       chamfer_steps="1"
       flexible="false"
       use_knot_distance="true"
       apply_no_radius="true"
       apply_with_radius="true"
       only_selected="true"
       hide_knots="false" /><inkscape:path-effect
       effect="fillet_chamfer"
       id="path-effect2085-3-3"
       is_visible="true"
       lpeversion="1"
       nodesatellites_param="C,0,0,1,0,0.52916667,0,1 @ F,0,0,1,0,0,0,1 @ F,0,0,1,0,0,0,1 @ F,0,0,1,0,0,0,1 @ C,0,0,1,0,0.52916667,0,1 @ C,0,0,1,0,0.52916667,0,1 @ C,0,0,1,0,0.52916667,0,1 @ C,0,0,1,0,0.52916667,0,1 @ C,0,0,1,0,0.52916667,0,1 @ C,0,0,1,0,9.2860807,0,1 @ C,0,0,1,0,0.52916667,0,1 @ C,0,0,1,0,0.52916667,0,1 @ C,0,0,1,0,0.52916667,0,1 @ F,0,0,1,0,0.52916667,0,1 | C,0,0,1,0,0.52916667,0,1 @ C,0,0,1,0,0.52916667,0,1 @ C,0,0,1,0,0.52916667,0,1 @ C,0,0,1,0,0.52916667,0,1 | C,0,0,1,0,0.52916667,0,1 @ C,0,0,1,0,0.52916667,0,1 @ C,0,1,1,0,0.5292,0,1 @ C,0,0,1,0,0.52916667,0,1"
       unit="px"
       method="auto"
       mode="F"
       radius="2"
       chamfer_steps="1"
       flexible="false"
       use_knot_distance="true"
       apply_no_radius="true"
       apply_with_radius="true"
       only_selected="true"
       hide_knots="false" /></defs><g
     inkscape:label="Layer 1"
     inkscape:groupmode="layer"
     id="layer1"><path
       style="fill:#000000;stroke-width:0.264583"
       d="M -105.51938,59.620816 H 172.7111"
       id="path2" /><path
       id="path5"
       style="fill:#000000;stroke-width:0.0408235"
       d="m 140,196.49988 1e-5,9.00012 16.39847,-7e-5 7.20369,4.06435 2.6e-4,6.93632 -23.60235,-3.8e-4 12.96605,15.45234 26.08228,-21.88564 -8.44695,-13.56679 z"
       sodipodi:nodetypes="cccccccccc" /><path
       style="fill:#000000;stroke-width:0.0408235"
       d="M 116.08682,103.84095 H 158.14 v -6.935837 l -7.20354,-4.06416 -34.84964,1.4e-5"
       id="path5-2"
       sodipodi:nodetypes="ccccc" /><path
       style="fill:#000000;stroke-width:0.0408235"
       d="m 75.572433,236.80691 -32.214604,27.03126 -4.45827,-5.31315 2.90584,-7.74368 26.696382,-22.4009"
       id="path5-2-7"
       sodipodi:nodetypes="ccccc" /><path
       style="fill:#000000;stroke-width:0.081647"
       d="m 85,143.98317 h 19.64213 V 130.11149 L 90.23505,121.98317 85,121.98319"
       id="path5-2-0"
       sodipodi:nodetypes="ccccc" /><path
       style="fill:#0000ff;stroke-width:0.0408235"
       d="m 57.347402,138.48317 h 42.053184 v -6.93584 l -7.203544,-4.06416 -34.84964,2e-5"
       id="path5-2-6"
       sodipodi:nodetypes="ccccc" /><path
       id="rect715-6-6"
       style="fill:#ff0000;stroke:#000000;stroke-width:0.264999;stroke-linejoin:bevel"
       d="m 311.39643,138.21052 -0.53646,-0.52169 -117.85331,1.68037 -11.23436,-7.82369 -0.0389,-2.65965 29.39241,-0.41951 0.52169,-0.53646 -0.15039,-5.70512 -0.53693,-0.52148 -28.17936,-0.0173 -1.03828,0.15193 -6.64877,4.27188 -0.28044,0.62143 49.55023,103.41932 0.58199,0.0833 2.62225,-2.92271 2.18934,-15.2861 -5.23741,-10.93131 0.12539,-0.8709 46.72246,-51.93666 0.88228,-0.42493 22.98788,-1.36895 1.02213,-0.22155 14.67442,-5.64009 c 0.29679,-0.11403 0.49095,-0.40106 0.48641,-0.71897 z m -47.2743,9.79044 0.17476,0.38557 -42.1094,46.70607 -0.5829,-0.084 -8.56014,-17.86638 0.1288,-0.86737 25.18691,-27.52178 0.88618,-0.39764 z m -33.00501,0.47028 0.17014,0.38147 -20.57087,22.29264 -0.58769,-0.088 -10.24795,-21.38913 0.30065,-0.49073 23.30092,-0.59121 1.05804,-0.021 z m -35.98834,-3.49244 8.64163,18.03648 -0.47019,1.33407 -5.41066,2.59235 -1.33384,-0.46972 -8.64163,-18.03648 0.46972,-1.33383 5.41066,-2.59236 z m 11.45281,23.90387 8.64186,18.03695 -0.47019,1.33406 -5.41066,2.59235 -1.33384,-0.46971 -8.64186,-18.03695 0.46972,-1.33384 5.41066,-2.59235 z m 11.45303,23.90432 8.64164,18.03648 -0.47019,1.33407 -5.41066,2.59235 -1.33384,-0.46972 -8.64163,-18.03648 0.46949,-1.3343 5.41066,-2.59236 z"
       sodipodi:nodetypes="ccccccccccccccccccccccccscccccccccccccccccccccccccccccccccccccccccccccc" /><path
       id="rect715-6-6-9"
       style="fill:#ff0000;stroke:#000000;stroke-width:0.264999;stroke-linejoin:bevel"
       d="m 84.841089,63.991766 -0.702274,0.25838 -49.407326,107.010024 -11.909866,6.751 -2.415367,-1.11411 12.321716,-26.6883 -0.258383,-0.70228 -5.210044,-2.32947 -0.702287,0.2589 -12.191503,25.40559 -0.311611,1.002 0.979682,7.8419 0.439251,0.52142 H 130.14993 l 0.3266,-0.48887 -1.50276,-3.62769 -12.83952,-8.57932 h -12.12122 l -0.73123,-0.48938 -26.65006,-64.57693 -0.002,-0.97927 8.698172,-21.322724 0.241847,-1.01752 1.254192,-15.67088 c 0.0254,-0.31692 -0.149556,-0.61604 -0.438219,-0.74931 z m -11.597216,46.863814 0.423231,0.009 23.926181,58.15665 -0.327617,0.48938 -19.811197,10e-6 -0.72657,-0.49094 -13.937131,-34.60614 0.0243,-0.971 z m -13.836881,29.96819 0.417537,0.0114 11.215848,28.18381 -0.333293,0.49198 H 46.989676 l -0.312649,-0.48318 9.534824,-21.26898 0.438225,-0.96325 z M 40.707346,171.7702 h 19.99981 l 0.999945,1.00047 -4e-6,5.99962 -0.999942,0.99994 H 40.707346 l -0.999932,-0.99994 -5e-6,-5.99963 z m 26.505884,0 h 20.000333 l 0.999937,1.00046 -4e-6,5.99963 -0.999934,0.99994 -20.000333,1e-5 -0.999941,-0.99995 4e-6,-5.99962 z m 26.506385,0 h 19.999815 l 0.99994,1.00046 0,5.99963 -0.99994,0.99994 -19.999811,-1e-5 -1.000455,-0.99993 -6e-6,-5.99963 z"
       sodipodi:nodetypes="ccccccccccccccccccccccccscccccccccccccccccccccccccccccccccccccccccccccc" /><path
       id="rect715-6-6-9-1"
       style="fill:#ff0000;stroke:#000000;stroke-width:0.264999;stroke-linejoin:bevel"
       d="m 43.574187,256.7629 -12.84,8.58 0.980076,3.59473 0.439251,0.52142 H 146.83037 l 0.3266,-0.48887 -1.50278,-3.62728 -12.84,-8.58 z m 13.813596,2.25953 h 19.99981 l 0.999945,1.00047 -4e-6,5.99962 -0.999942,0.99994 H 57.387783 l -0.999932,-0.99994 -5e-6,-5.99963 z m 26.505884,0 H 103.894 l 0.99994,1.00046 -1e-5,5.99963 -0.99993,0.99994 -20.000334,10e-6 -0.999941,-0.99995 4e-6,-5.99962 z m 26.506383,0 h 19.99982 l 0.99994,1.00046 v 5.99963 l -0.99994,0.99994 -19.99981,-1e-5 -1.00046,-0.99993 0,-5.99963 z"
       sodipodi:nodetypes="cccccccccccccccccccccccccccccccccccc" /><rect
       style="font-variation-settings:normal;opacity:1;vector-effect:none;fill:#ff0000;fill-opacity:1;stroke:#000000;stroke-width:0.264999;stroke-linecap:butt;stroke-linejoin:bevel;stroke-miterlimit:4;stroke-dasharray:none;stroke-dashoffset:0;stroke-opacity:1;-inkscape-stroke:none;stop-color:#000000;stop-opacity:1"
       id="rect5"
       width="102.20712"
       height="7.0977163"
       x="-116.17854"
       y="233.5013"
       transform="rotate(-40)" /></g></svg>
